<svg xmlns="http://www.w3.org/2000/svg" width="160" height="48" viewBox="0 0 160 48"><defs><style>.a{fill:#2b3990;}.b{fill:#ed1c24;}.c{fill:#ff2c00;}</style></defs><g transform="translate(0 0.003)"><g transform="translate(0 -0.003)"><path class="a" d="M323.251,34.5a26.4,26.4,0,0,1-12.8,5.012c-.595.052-1.145.081-1.679.081a10.689,10.689,0,0,1-8.336-3.422c-2.38-2.649-3.537-6.626-3.545-12.157,0-5.837,1.279-9.955,3.925-12.592a10.8,10.8,0,0,1,7.956-3.011c.526,0,1.064.024,1.647.072a26.353,26.353,0,0,1,12.808,4.988q.741.547,1.4,1.131h0A24.191,24.191,0,0,0,281.4,12.212h10.582a2.018,2.018,0,0,1,2,1.989h0a2.018,2.018,0,0,1-2,1.989H279.606a23.73,23.73,0,0,0-1.214,5.821h13.593a2.018,2.018,0,0,1,2,1.989h0a2.018,2.018,0,0,1-2,1.989H278.38a23.749,23.749,0,0,0,1.214,5.773h12.391a2.018,2.018,0,0,1,2,1.989h0a2.018,2.018,0,0,1-2,1.985h-10.6a24.187,24.187,0,0,0,43.261-2.363h0Q323.988,33.95,323.251,34.5Z" transform="translate(-165.724 0.003)"/><path class="b" d="M353.812,34.651A22.658,22.658,0,0,0,342.954,30.4c-.429-.036-.866-.06-1.311-.06-3.9,0-8.065,1.808-8.053,11.8s4.164,11.775,8.053,11.775c.453,0,.9-.024,1.335-.064a22.624,22.624,0,0,0,10.846-4.267c3.055-2.278,4.767-4.98,4.767-7.472S356.888,36.934,353.812,34.651Z" transform="translate(-198.591 -18.125)"/><rect class="c" width="104.554" height="1.473" rx="0.737" transform="translate(0 25.669)"/><path class="a" d="M153.928,23.991h-3.039a2.436,2.436,0,0,0-1.817.632,3.016,3.016,0,0,0-.631,2.109v4.38a2.933,2.933,0,0,0,.631,2.109,2.436,2.436,0,0,0,1.809.636h3.047a2.436,2.436,0,0,0,1.809-.636,2.974,2.974,0,0,0,.631-2.109v-4.38a2.939,2.939,0,0,0-.631-2.109,2.436,2.436,0,0,0-1.809-.632Zm.53,7.121a.856.856,0,0,1-.854.849h-2.38a.852.852,0,0,1-.85-.849V26.736a.848.848,0,0,1,.85-.845h2.38a.852.852,0,0,1,.854.845Z" transform="translate(-88.369 -14.328)"/><rect class="a" width="1.914" height="13.868" rx="0.957" transform="translate(70.723 5.657)"/><path class="a" d="M58,15.763a.96.96,0,0,0,1-.515.95.95,0,0,0-.179-1.1.963.963,0,0,0-1.109-.178.953.953,0,0,0,.291,1.8Z" transform="translate(-34.043 -8.282)"/><path class="a" d="M43.441,52.683a.969.969,0,0,0-1.009.516.958.958,0,0,0,.179,1.115.971.971,0,0,0,1.121.178.961.961,0,0,0,.519-1A.973.973,0,0,0,43.441,52.683Z" transform="translate(-25.198 -31.467)"/><path class="a" d="M35.792,52.683a.974.974,0,0,0-.836.272.963.963,0,0,0-.273.831.977.977,0,0,0,.809.805.962.962,0,1,0,.308-1.9Z" transform="translate(-20.641 -31.467)"/><path class="a" d="M24.31,17.967h-.223a.852.852,0,0,0-.85.849v6.968H19.146V18.8a.852.852,0,0,0-.846-.833h-.235a.852.852,0,0,0-.85.849v6.968H13.08v-3.22a2.939,2.939,0,0,0-.631-2.109,2.468,2.468,0,0,0-1.837-.648H2.064l.134-.455A5.171,5.171,0,0,1,6.33,15.729a.847.847,0,0,0,.716-.833v-.149a.848.848,0,0,0-.3-.644.857.857,0,0,0-.689-.189,6.952,6.952,0,0,0-5.9,6.7L.15,21.59a.1.1,0,0,0,.032.072.106.106,0,0,0,.085.032H10.3a.848.848,0,0,1,.85.845v3.22H1.036a.848.848,0,0,0-.85.845v.217a.848.848,0,0,0,.85.845H22.707a2.468,2.468,0,0,0,1.825-.636,3.009,3.009,0,0,0,.627-2.109V18.8A.852.852,0,0,0,24.31,17.967Z" transform="translate(-0.089 -8.304)"/><path class="a" d="M94.424,18.026H91.385a2.436,2.436,0,0,0-1.813.636,3.016,3.016,0,0,0-.631,2.109V26H86.193v-3.22a2.95,2.95,0,0,0-.631-2.113,2.46,2.46,0,0,0-1.821-.636h-8.5l.146-.5a5.078,5.078,0,0,1,4.112-3.6.855.855,0,0,0,.728-.837v-.133a.848.848,0,0,0-.3-.644.857.857,0,0,0-.689-.189,6.94,6.94,0,0,0-5.88,6.715v.994a.1.1,0,0,0,.036.076.106.106,0,0,0,.081.025h9.951a.848.848,0,0,1,.85.845V26H70.616V14.857a.843.843,0,0,0-.246-.607.852.852,0,0,0-.608-.25h-.219a.852.852,0,0,0-.6.246.843.843,0,0,0-.25.6v10.3a2.951,2.951,0,0,0,.631,2.109,2.436,2.436,0,0,0,1.809.636H94.436a2.436,2.436,0,0,0,1.8-.636,2.975,2.975,0,0,0,.623-2.109v-4.38a2.978,2.978,0,0,0-.623-2.109,2.436,2.436,0,0,0-1.817-.632Zm.53,7.121A.856.856,0,0,1,94.1,26h-2.38a.852.852,0,0,1-.854-.849V20.771a.843.843,0,0,1,.25-.6.852.852,0,0,1,.6-.246H94.1a.852.852,0,0,1,.854.845Z" transform="translate(-40.892 -8.363)"/><path class="a" d="M210.76,24.622a2.436,2.436,0,0,0-1.809-.632H199.9a2.436,2.436,0,0,0-1.813.636,3.017,3.017,0,0,0-.619,2.109v5.233h-2.76V26.736a2.939,2.939,0,0,0-.631-2.109,2.46,2.46,0,0,0-1.837-.636H189.2a2.436,2.436,0,0,0-1.813.636,3.016,3.016,0,0,0-.627,2.109v5.233H184.1V26.784a.949.949,0,0,0-.458-.874.959.959,0,0,0-.991,0,.949.949,0,0,0-.458.874v4.927a1.37,1.37,0,0,1-.024.314h0a.6.6,0,0,1,0,.085,5.074,5.074,0,0,1-2.428,3.736.915.915,0,0,0-.251.624.974.974,0,0,0,.518.851.984.984,0,0,0,1-.046,6.948,6.948,0,0,0,1.214-.986,7.825,7.825,0,0,0,1.449-2.452h25.293a2.436,2.436,0,0,0,1.809-.636,2.974,2.974,0,0,0,.631-2.109v-4.36A3.015,3.015,0,0,0,210.76,24.622Zm-17.976,6.4a.935.935,0,0,1-.278.665.945.945,0,0,1-.669.273h-2.214a.94.94,0,0,1-.943-.938V26.808a.932.932,0,0,1,.276-.662.941.941,0,0,1,.666-.272h2.214a.942.942,0,0,1,.669.271.932.932,0,0,1,.278.663Zm10.672,0a.94.94,0,0,1-.939.938h-2.181a.94.94,0,0,1-.943-.938V26.808a.937.937,0,0,1,.943-.918h2.189a.936.936,0,0,1,.931.918Zm6.022,0a.94.94,0,0,1-.943.938h-2.21a.94.94,0,0,1-.943-.938V26.808a.931.931,0,0,1,.276-.662.941.941,0,0,1,.667-.272h2.21a.941.941,0,0,1,.666.272.931.931,0,0,1,.276.662Z" transform="translate(-106.853 -14.328)"/><path class="a" d="M2.6,88.663V81.3h.809v3.18H7.683V81.3h.809v7.363H7.683V85.249H3.417v3.414Z" transform="translate(-1.548 -48.57)"/><path class="a" d="M19.67,88.663,22.406,81.3h1.348l2.752,7.363h-.846l-.708-1.884H21.208l-.692,1.884Zm1.809-2.613h3.209l-1.477-3.969h-.263Z" transform="translate(-11.71 -48.57)"/><path class="a" d="M39,88.663V81.3h1.348l2.537,6.562L45.4,81.3h1.356v7.363h-.809V81.984l-2.558,6.678H42.375l-2.566-6.678v6.678Z" transform="translate(-23.217 -48.57)"/><path class="a" d="M62.59,88.663V81.3h3.343a2.92,2.92,0,0,1,1.72.366,1.605,1.605,0,0,1,.469,1.312v1.115a1.516,1.516,0,0,1-.239.906,1.049,1.049,0,0,1-.716.4,1.142,1.142,0,0,1,.741.451,1.924,1.924,0,0,1,.214,1.027v1.771h-.858V87.145a1.64,1.64,0,0,0-.251-1.071,1.308,1.308,0,0,0-.979-.278H63.407v2.866Zm3.181-6.582H63.407v2.947h2.363a2.171,2.171,0,0,0,1.214-.225A1,1,0,0,0,67.268,84v-.874a1,1,0,0,0-.275-.805A2.167,2.167,0,0,0,65.771,82.081Z" transform="translate(-37.261 -48.57)"/><path class="a" d="M78.26,88.663,80.988,81.3h1.348l2.752,7.363h-.838l-.708-1.884H79.8l-.692,1.884Zm1.809-2.613h3.209L81.8,82.081h-.263Z" transform="translate(-46.589 -48.57)"/><path class="a" d="M97.6,88.663V81.3h.809v3.18h4.265V81.3h.809v7.363h-.809V85.249H98.417v3.414Z" transform="translate(-58.103 -48.57)"/><path class="a" d="M125.1,88.663V81.3h1.348l2.537,6.562L131.5,81.3h1.356v7.363h-.809V81.984l-2.558,6.678h-1.008l-2.562-6.678v6.678Z" transform="translate(-74.474 -48.57)"/><path class="a" d="M148.69,88.663V81.3h5.188v.781H149.5V84.5h4.253v.753H149.5V87.9h4.375v.769Z" transform="translate(-88.518 -48.57)"/><path class="a" d="M164.19,83.594a2.784,2.784,0,0,1,.546-1.969,2.653,2.653,0,0,1,1.922-.556h.866a2.963,2.963,0,0,1,1.918.479,2.036,2.036,0,0,1,.55,1.61v.322h-.846v-.2a1.508,1.508,0,0,0-.34-1.143,2.105,2.105,0,0,0-1.344-.306h-.571a4.336,4.336,0,0,0-.979.081,1.216,1.216,0,0,0-.51.274,1.041,1.041,0,0,0-.287.5,5.1,5.1,0,0,0-.081,1.107v2.1a5.1,5.1,0,0,0,.081,1.107,1.045,1.045,0,0,0,.287.491,1.191,1.191,0,0,0,.494.278,4.3,4.3,0,0,0,1,.081h.571a2.063,2.063,0,0,0,1.364-.322,1.708,1.708,0,0,0,.336-1.232v-.35H170v.483a2.242,2.242,0,0,1-.534,1.707,2.947,2.947,0,0,1-1.934.479h-.866a2.666,2.666,0,0,1-1.922-.552,2.775,2.775,0,0,1-.546-1.969Z" transform="translate(-97.745 -48.433)"/><path class="a" d="M182,88.663V81.3h.809v3.18h4.265V81.3h.809v7.363h-.809V85.249h-4.265v3.414Z" transform="translate(-108.347 -48.57)"/><path class="a" d="M199,88.663l2.736-7.363h1.348l2.752,7.363h-.846l-.708-1.884h-3.743l-.692,1.884Zm1.809-2.613h3.209l-1.477-3.969h-.263Z" transform="translate(-118.468 -48.57)"/><path class="a" d="M218.37,88.663V81.3h1.263l4.014,6.574V81.3h.809v7.363H223.2l-4.01-6.582v6.582Z" transform="translate(-129.999 -48.57)"/><path class="a" d="M237.87,88.663V81.3h.809v7.363Z" transform="translate(-141.608 -48.57)"/><path class="a" d="M243.76,83.594a2.784,2.784,0,0,1,.546-1.969,2.644,2.644,0,0,1,1.922-.556h.866a2.969,2.969,0,0,1,1.922.479,2.036,2.036,0,0,1,.55,1.61v.322h-.854v-.2a1.492,1.492,0,0,0-.344-1.143,2.085,2.085,0,0,0-1.34-.306h-.575a4.291,4.291,0,0,0-.975.081,1.151,1.151,0,0,0-.51.274,1.009,1.009,0,0,0-.287.5,5.1,5.1,0,0,0-.081,1.107v2.1a5.1,5.1,0,0,0,.081,1.107,1.013,1.013,0,0,0,.287.491,1.167,1.167,0,0,0,.494.278,4.287,4.287,0,0,0,.991.081h.575a2.05,2.05,0,0,0,1.36-.322,1.688,1.688,0,0,0,.34-1.232v-.35h.842v.483a2.242,2.242,0,0,1-.534,1.707,2.96,2.96,0,0,1-1.938.479h-.862a2.663,2.663,0,0,1-1.922-.552,2.8,2.8,0,0,1-.546-1.969Z" transform="translate(-145.114 -48.433)"/></g></g></svg>